<?xml version="1.0" encoding="UTF-8" standalone="no"?>
<!DOCTYPE svg PUBLIC "-//W3C//DTD SVG 1.1//EN" "http://www.w3.org/Graphics/SVG/1.1/DTD/svg11.dtd">
<svg width="100%" height="100%" viewBox="0 0 577 429" version="1.1" xmlns="http://www.w3.org/2000/svg" xmlns:xlink="http://www.w3.org/1999/xlink" xml:space="preserve" xmlns:serif="http://www.serif.com/" style="fill-rule:evenodd;clip-rule:evenodd;stroke-linecap:round;stroke-linejoin:round;stroke-miterlimit:1.5;">
    <path d="M104.595,155.607C84.592,170.067 72.851,193.335 73.102,218.016C73.52,259.119 74.164,322.38 74.52,357.348C74.663,371.42 86.136,382.74 100.209,382.694C184.086,382.425 451.39,381.568 535.085,381.299C541.789,381.278 548.209,378.588 552.926,373.825C557.643,369.062 560.27,362.617 560.227,355.913C559.84,295.843 558.868,145.175 558.478,84.809C558.387,70.663 546.858,59.264 532.712,59.332C473.819,59.616 328.958,60.316 265.912,60.621C246.319,60.715 227.246,66.939 211.367,78.418C182.937,98.971 135.889,132.983 104.595,155.607Z" style="fill:none;stroke:black;stroke-width:1px;"/>
</svg>
