<?xml version="1.0" encoding="UTF-8" standalone="no"?>
<!DOCTYPE svg PUBLIC "-//W3C//DTD SVG 1.1//EN" "http://www.w3.org/Graphics/SVG/1.1/DTD/svg11.dtd">
<svg width="100%" height="100%" viewBox="0 0 577 429" version="1.1" xmlns="http://www.w3.org/2000/svg" xmlns:xlink="http://www.w3.org/1999/xlink" xml:space="preserve" xmlns:serif="http://www.serif.com/" style="fill-rule:evenodd;clip-rule:evenodd;stroke-linecap:round;stroke-linejoin:round;stroke-miterlimit:1.5;">
    <defs>
        <clipPath id="svgPath">
            <path d="M106.772,153.296C87.005,167.598 75.3,190.514 75.3,214.912C75.299,256.184 75.299,320.253 75.299,355.61C75.299,362.402 77.996,368.915 82.799,373.718C87.601,378.52 94.115,381.218 100.906,381.218L535.168,381.218C549.098,381.218 560.391,369.926 560.391,355.995C560.393,295.995 560.397,145.273 560.399,84.851C560.399,78.05 557.698,71.528 552.889,66.719C548.08,61.91 541.558,59.208 534.757,59.208C475.753,59.206 330.581,59.202 267.224,59.201C247.462,59.2 228.203,65.436 212.193,77.021C183.955,97.451 137.604,130.988 106.772,153.296Z" style="fill:white;stroke:black;stroke-width:1px;"/>
        </clipPath>
        </defs>
</svg>
