<svg xmlns="http://www.w3.org/2000/svg" version="1.1" xmlns:xlink="http://www.w3.org/1999/xlink" xmlns:svgjs="http://svgjs.dev/svgjs" width="2000" height="560" preserveAspectRatio="none" viewBox="0 0 2000 560"><g mask="url(&quot;#SvgjsMask1016&quot;)" fill="none"><path d="M1150.51 637.58C1279.58 604.41 1236.21 252.79 1518.03 251.49 1799.85 250.19 2065.46 401.91 2253.06 402.69" stroke="rgba(143, 167, 193, 0.58)" stroke-width="2"></path><path d="M473.84 652.98C703.01 640.01 856.8 231.05 1285.38 223.54 1713.96 216.03 1891.71 100.69 2096.92 100.34" stroke="rgba(143, 167, 193, 0.58)" stroke-width="2"></path><path d="M666.01 591.34C839.78 562.16 918.29 141.67 1203.94 135.91 1489.58 130.15 1472.9 205.91 1741.86 205.91 2010.83 205.91 2144.17 136.06 2279.79 135.91" stroke="rgba(143, 167, 193, 0.58)" stroke-width="2"></path><path d="M786.68 665.36C960.24 654.32 1089.55 328.16 1395.05 328.04 1700.54 327.92 1841.37 548.52 2003.41 552.04" stroke="rgba(143, 167, 193, 0.58)" stroke-width="2"></path><path d="M1011.64 602.63C1130.19 583.59 1101.57 296.48 1381.4 296.14 1661.23 295.8 1931.92 452.08 2120.91 452.94" stroke="rgba(143, 167, 193, 0.58)" stroke-width="2"></path></g><defs><mask id="SvgjsMask1016"><rect width="2000" height="560" fill="#ffffff"></rect></mask></defs></svg>